# xmcd
# 
# Track frame offsets:
#     150
#     11170
#     29442
#     47005
#     71247
#     87465
#     99002
#     112712
#     127425
#     141820
# 
# Disc length: 2099
# 
# Revision: 3
# Processed by: cddbd v1.5.2PL0 Copyright (c) Steve Scherf et al.
# Submitted via: fre:ac v1.0.17
# 
DISCID=8808310a
DTITLE=Reba McEntire - Merry ChristmasTo You
DYEAR=1993
DGENRE=Country
TTITLE0=Away In A Manger
TTITLE1=On This Day
TTITLE2=O Holy Night
TTITLE3=The Christmas Guest
TTITLE4=Silent Night
TTITLE5=Happy Birthday Jesus
TTITLE6=White Christmas
TTITLE7=I'll Be Home For Christmas
TTITLE8=A Christmas Letter
TTITLE9=The Christmas Song (Chestnuts Roasting On An Open Fire)
EXTD=Christmas is my favorite time of the year.  It's Jesus'\nBirthday, a time for family get-togethers and a time for giving-\nwhich is one of the best feelings of all!\n\nI thoroughly enjoyed working in the studio with my band\nand crew- who also happen
EXTD=to be my best friends.\n\nThere's a special feeling that goes with Christmas.  I got\nthat special feeling with this album.\n\nWe hope you feel it too!\n\nLove,\n        Reba YEAR: 1993
EXTT0=
EXTT1=
EXTT2=
EXTT3=
EXTT4=
EXTT5=
EXTT6=
EXTT7=
EXTT8=
EXTT9=
PLAYORDER=
